<svg width="114" height="114" viewBox="0 0 114 114" fill="none" xmlns="http://www.w3.org/2000/svg">
<path fill-rule="evenodd" clip-rule="evenodd" d="M48.8816 27.2806C50.508 26.1977 51.3212 25.6563 51.8781 26.0366C52.4349 26.4168 52.2002 27.4923 51.7307 29.6431C49.8584 38.2204 52.2567 47.5426 58.9256 54.2115C65.5944 60.8803 74.9166 63.2786 83.4939 61.4063C85.6448 60.9368 86.7202 60.7021 87.1005 61.259C87.4808 61.8158 86.9393 62.629 85.8565 64.2554C84.8928 65.7028 83.7725 67.0769 82.4958 68.3536C72.0818 78.7676 55.1974 78.7676 44.7834 68.3536C34.3694 57.9396 34.3694 41.0552 44.7834 30.6413C46.0602 29.3645 47.4342 28.2443 48.8816 27.2806Z" fill="#191919"/>
</svg>
